<svg width="2028" height="864" viewBox="0 0 2028 864" fill="none" xmlns="http://www.w3.org/2000/svg">
<rect y="358.5" width="1542" height="126" rx="63" fill="#C9A25D"/>
<path d="M1107.16 347.546C1014.66 392.046 955.158 483.046 986.163 496.046C987.328 470.713 1011.96 408.246 1101.16 361.046L1107.16 347.546Z" fill="#0B502D"/>
<path d="M1067.66 389.546C1053.66 452.546 1014.49 488.713 996.659 500.046C1060.66 485.546 1077.16 397.046 1074.66 393.046C1072.66 389.846 1069.16 389.379 1067.66 389.546Z" fill="#0B502D"/>
<path d="M1076.16 340.546L1073.16 357.546C1077.16 357.879 1085.56 357.846 1087.16 355.046C1088.76 352.246 1086.67 347.467 1085.5 342.467C1084.17 341.967 1081.76 336.146 1076.16 340.546Z" fill="#0B502D"/>
<path d="M980.659 299.546C1019.06 367.946 1129.16 333.546 1133.16 305.546C1096.16 313.546 1035.16 350.546 994.659 296.546C992.992 285.546 990.659 261.746 994.659 254.546C998.659 247.346 1011.66 236.879 1017.66 232.546C1023.83 241.546 1040.46 257.746 1065.66 248.546C1054.66 226.046 1051.66 239.546 1030.16 220.546C1035.33 218.379 1048.16 216.046 1055.66 196.546C1048.86 192.546 1043.16 194.879 1041.16 196.546C1039.49 199.712 1032.46 206.146 1017.66 206.546C1017.66 211.346 1014.99 212.546 1013.66 212.546C983.659 212.546 962.159 158.546 1013.66 133.546C1055.66 121.047 1101.16 129.046 1246.66 206.546C1245.49 208.386 1242.65 215.565 1242.65 225.565C1242.65 231.095 1288.15 206.546 1306.65 183.565C1299.65 179.065 1285.15 188.565 1273.65 197.065C1260.15 206.065 1249.65 194.565 1173.65 159.065L1164.65 130.065C1156.65 124.565 1132.65 92.5652 1138.65 57.0652C1143.45 10.6652 1203.65 13.3986 1233.15 20.5652C1233.15 35.3652 1222.65 33.0653 1218.15 70.0653C1241.65 50.0653 1239.65 33.0652 1248.15 35.5652C1256.85 38.1241 1268.65 54.7319 1274.65 68.0653C1275.85 42.4653 1253.82 22.7313 1242.65 16.0643C1160.15 -24.4373 1097.65 32.5582 1126.15 95.5588C1149.65 137.558 1145.15 137.558 1130.65 137.558C991 65.9668 929.148 171.06 989.659 215.047C991.326 217.714 994.659 224.947 994.659 232.546C974.259 257.745 976.826 287.712 980.659 299.546Z" fill="#0B502D"/>
<path d="M1241.15 242.565C1201.15 232.165 1202.15 208.565 1182.15 186.065C1220.15 191.065 1206.95 215.33 1230.15 220.546C1232.48 223.552 1237.95 232.165 1241.15 242.565Z" fill="#0B502D"/>
<path d="M1268.65 234.065C1230.25 257.265 1218.15 261.065 1202.15 279.565C1207.35 281.565 1211.65 281.399 1213.15 281.065C1242.65 261.565 1273.65 244.565 1276.65 242.565C1277.58 241.945 1276.15 236.065 1276.65 234.065H1268.65Z" fill="#0B502D"/>
<path d="M1265.65 264.565C1268.05 260.965 1265.98 258.065 1264.65 257.065C1294 261.475 1299 277.975 1326.15 281.565C1318.65 261.565 1304.65 244.565 1284.15 239.065C1282.55 231.065 1278.48 221.065 1276.65 217.065C1303.65 224.565 1305.15 230.565 1312.15 234.065L1316.15 241.065C1340.65 266.065 1348.65 278.065 1357.65 300.065C1404.15 329.565 1447.32 333.232 1462.65 332.065C1528.65 332.065 1526.65 288.065 1524.65 264.565C1515.15 262.065 1511.67 246.232 1511.65 242.065C1516.32 241.565 1527.85 244.865 1536.65 262.065C1546.65 444.565 1262.65 269.065 1265.65 264.565Z" fill="#0B502D"/>
<path d="M1314 181.475C1311.59 183.583 1303.66 204.142 1298.5 213.475C1305.3 215.076 1311.66 214.142 1314 213.475L1326 193.475C1362.5 153.47 1427.44 71.6465 1382.5 25.975C1351 -6.0332 1290.5 -5.53047 1258.5 14.4754L1258 22.4754C1258.33 23.642 1261.6 25.2754 1272 22.4754C1312.8 7.27538 1348 18.4754 1360.5 25.9754C1420.5 68.0652 1326 170.975 1314 181.475Z" fill="#0B502D"/>
<path d="M1524.65 158.467C1490 92.4668 1401.5 153.467 1363 160.967C1376.94 126.467 1470.5 96.7952 1511.65 124.967C1582.5 173.467 1508 248.467 1491 246.467C1532.2 207.267 1530.6 171.467 1524.65 158.467Z" fill="#0B502D"/>
<path d="M1131 437.467C1057.19 386.599 1167.92 276.541 1206.7 245.21L1219.5 244.967C1218 249.467 1217.5 252.967 1203.5 263.467C1189.67 273.835 1186.74 280.628 1184.1 286.735L1184 286.967C1155.5 315.967 1106.5 364.967 1127 415.967C1141.5 443.467 1176 453.967 1252 420.967C1255 443.467 1185.41 474.967 1131 437.467Z" fill="#0B502D"/>
<path d="M1394 423.467C1367.5 460.467 1273.5 475.467 1237 376.967C1251 387.967 1266.5 415.967 1290 430.467C1346.5 451.467 1403.5 428.467 1388.5 369.467C1380.5 348.967 1367.5 331.467 1368.5 325.967C1421 344.467 1412 400.967 1394 423.467Z" fill="#0B502D"/>
<path d="M1270 407.467C1270 398.633 1275.1 379.667 1295.5 374.467C1297 382.467 1286.5 402.967 1270 407.467Z" fill="#0B502D"/>
<path d="M1207 244.967C1206.9 245.047 1206.8 245.129 1206.7 245.21M1206.7 245.21C1167.92 276.541 1057.19 386.599 1131 437.467C1185.41 474.967 1255 443.467 1252 420.967C1176 453.967 1141.5 443.467 1127 415.967C1106.5 364.967 1155.5 315.967 1184 286.967C1186.66 280.8 1189.5 273.967 1203.5 263.467C1217.5 252.967 1218 249.467 1219.5 244.967L1206.7 245.21ZM986.163 496.046C955.158 483.046 1014.66 392.046 1107.16 347.546L1101.16 361.046C1011.96 408.246 987.328 470.713 986.163 496.046ZM996.659 500.046C1014.49 488.713 1053.66 452.546 1067.66 389.546C1069.16 389.379 1072.66 389.846 1074.66 393.046C1077.16 397.046 1060.66 485.546 996.659 500.046ZM1073.16 357.546L1076.16 340.546C1081.76 336.146 1084.17 341.967 1085.5 342.467C1086.67 347.467 1088.76 352.246 1087.16 355.046C1085.56 357.846 1077.16 357.879 1073.16 357.546ZM1133.16 305.546C1129.16 333.546 1019.06 367.946 980.659 299.546C976.826 287.712 974.259 257.745 994.659 232.546C994.659 224.947 991.326 217.714 989.659 215.047C929.148 171.06 991 65.9668 1130.65 137.558C1145.15 137.558 1149.65 137.558 1126.15 95.5588C1097.65 32.5582 1160.15 -24.4373 1242.65 16.0643C1253.82 22.7313 1275.85 42.4653 1274.65 68.0653C1268.65 54.7319 1256.85 38.1241 1248.15 35.5652C1239.65 33.0652 1241.65 50.0653 1218.15 70.0653C1222.65 33.0653 1233.15 35.3652 1233.15 20.5652C1203.65 13.3986 1143.45 10.6652 1138.65 57.0652C1132.65 92.5652 1156.65 124.565 1164.65 130.065L1173.65 159.065C1249.65 194.565 1260.15 206.065 1273.65 197.065C1285.15 188.565 1299.65 179.065 1306.65 183.565C1288.15 206.546 1242.65 231.095 1242.65 225.565C1242.65 215.565 1245.49 208.386 1246.66 206.546C1101.16 129.046 1055.66 121.047 1013.66 133.546C962.159 158.546 983.659 212.546 1013.66 212.546C1014.99 212.546 1017.66 211.346 1017.66 206.546C1032.46 206.146 1039.49 199.712 1041.16 196.546C1043.16 194.879 1048.86 192.546 1055.66 196.546C1048.16 216.046 1035.33 218.379 1030.16 220.546C1051.66 239.546 1054.66 226.046 1065.66 248.546C1040.46 257.746 1023.83 241.546 1017.66 232.546C1011.66 236.879 998.659 247.346 994.659 254.546C990.659 261.746 992.992 285.546 994.659 296.546C1035.16 350.546 1096.16 313.546 1133.16 305.546ZM1182.15 186.065C1202.15 208.565 1201.15 232.165 1241.15 242.565C1237.95 232.165 1232.48 223.552 1230.15 220.546C1206.95 215.33 1220.15 191.065 1182.15 186.065ZM1202.15 279.565C1218.15 261.065 1230.25 257.265 1268.65 234.065H1276.65C1276.15 236.065 1277.58 241.945 1276.65 242.565C1273.65 244.565 1242.65 261.565 1213.15 281.065C1211.65 281.399 1207.35 281.565 1202.15 279.565ZM1264.65 257.065C1265.98 258.065 1268.05 260.965 1265.65 264.565C1262.65 269.065 1546.65 444.565 1536.65 262.065C1527.85 244.865 1516.32 241.565 1511.65 242.065C1511.67 246.232 1515.15 262.065 1524.65 264.565C1526.65 288.065 1528.65 332.065 1462.65 332.065C1447.32 333.232 1404.15 329.565 1357.65 300.065C1348.65 278.065 1340.65 266.065 1316.15 241.065L1312.15 234.065C1305.15 230.565 1303.65 224.565 1276.65 217.065C1278.48 221.065 1282.55 231.065 1284.15 239.065C1304.65 244.565 1318.65 261.565 1326.15 281.565C1299 277.975 1294 261.475 1264.65 257.065ZM1298.5 213.475C1303.66 204.142 1311.59 183.583 1314 181.475C1326 170.975 1420.5 68.0652 1360.5 25.9754C1348 18.4754 1312.8 7.27538 1272 22.4754C1261.6 25.2754 1258.33 23.6421 1258 22.4754L1258.5 14.4754C1290.5 -5.53047 1351 -6.0332 1382.5 25.975C1427.44 71.6465 1362.5 153.47 1326 193.475L1314 213.475C1311.66 214.142 1305.3 215.076 1298.5 213.475ZM1363 160.967C1401.5 153.467 1490 92.4668 1524.65 158.467C1530.6 171.467 1532.2 207.267 1491 246.467C1508 248.467 1582.5 173.467 1511.65 124.967C1470.5 96.7952 1376.94 126.467 1363 160.967ZM1237 376.967C1273.5 475.467 1367.5 460.467 1394 423.467C1412 400.967 1421 344.467 1368.5 325.967C1367.5 331.467 1380.5 348.967 1388.5 369.467C1403.5 428.467 1346.5 451.467 1290 430.467C1266.5 415.967 1251 387.967 1237 376.967ZM1270 407.467C1270 398.633 1275.1 379.667 1295.5 374.467C1297 382.467 1286.5 402.967 1270 407.467Z" stroke="#0B502D"/>
<path d="M333.94 664.197C318.794 675.906 309.287 682.674 305.42 684.5C299.619 687.186 293.442 688.528 286.89 688.528C276.685 688.528 268.252 685.037 261.592 678.055C255.039 671.072 251.763 661.888 251.763 650.501C251.763 643.304 253.374 637.073 256.597 631.81C261.001 624.505 268.628 617.63 279.478 611.185C290.435 604.739 308.589 596.897 333.94 587.659V581.858C333.94 567.142 331.577 557.044 326.851 551.565C322.231 546.087 315.464 543.348 306.548 543.348C299.78 543.348 294.409 545.174 290.435 548.826C286.353 552.479 284.312 556.668 284.312 561.395L284.634 570.74C284.634 575.682 283.345 579.495 280.767 582.181C278.296 584.866 275.02 586.209 270.938 586.209C266.963 586.209 263.687 584.812 261.108 582.02C258.638 579.227 257.402 575.413 257.402 570.579C257.402 561.341 262.129 552.854 271.582 545.12C281.035 537.386 294.302 533.519 311.382 533.519C324.487 533.519 335.229 535.721 343.608 540.125C349.946 543.455 354.619 548.665 357.627 555.755C359.561 560.374 360.527 569.827 360.527 584.114V634.227C360.527 648.299 360.796 656.946 361.333 660.169C361.87 663.284 362.729 665.379 363.911 666.453C365.2 667.527 366.65 668.064 368.262 668.064C369.98 668.064 371.484 667.688 372.773 666.937C375.029 665.54 379.38 661.619 385.825 655.174V664.197C373.794 680.311 362.3 688.367 351.343 688.367C346.079 688.367 341.89 686.541 338.774 682.889C335.659 679.236 334.048 673.006 333.94 664.197ZM333.94 653.724V597.488C317.72 603.934 307.246 608.499 302.52 611.185C294.033 615.911 287.964 620.853 284.312 626.009C280.659 631.165 278.833 636.805 278.833 642.928C278.833 650.662 281.143 657.107 285.762 662.264C290.381 667.312 295.698 669.837 301.714 669.837C309.878 669.837 320.62 664.466 333.94 653.724ZM420.385 537.869H550.58V543.992C543.276 543.992 538.388 544.744 535.917 546.248C533.554 547.645 531.674 549.417 530.278 551.565C528.881 553.714 528.183 560.696 528.183 572.513V645.506C528.183 660.867 529.472 670.32 532.05 673.865C534.736 677.303 540.912 679.183 550.58 679.505V726.395H544.457C544.028 717.586 541.825 709.905 537.851 703.353C533.984 696.8 528.559 692.181 521.576 689.495C514.594 686.81 504.281 685.467 490.639 685.467H452.612C440.795 685.467 431.557 686.487 424.897 688.528C418.237 690.677 412.651 695.081 408.139 701.741C403.735 708.401 401.049 716.619 400.082 726.395H394.12V679.505C402.929 679.183 410.932 675.691 418.129 669.031C425.326 662.371 431.664 649.319 437.143 629.876C442.621 610.433 445.361 591.312 445.361 572.513C445.361 554.036 437.035 544.529 420.385 543.992V537.869ZM455.995 548.343V557.205C455.995 609.949 446.435 649.212 427.314 674.993H482.099C491.982 674.993 497.675 674.188 499.179 672.576C500.683 670.857 501.435 664.681 501.435 654.046V548.343H455.995ZM643.631 533.519C665.975 533.519 683.914 542.005 697.45 558.978C708.944 573.479 714.691 590.13 714.691 608.929C714.691 622.142 711.522 635.516 705.184 649.051C698.846 662.586 690.091 672.791 678.919 679.666C667.855 686.541 655.501 689.979 641.859 689.979C619.622 689.979 601.952 681.116 588.846 663.392C577.782 648.46 572.249 631.702 572.249 613.118C572.249 599.583 575.579 586.155 582.24 572.835C589.007 559.407 597.87 549.524 608.827 543.187C619.784 536.741 631.385 533.519 643.631 533.519ZM638.636 543.992C632.943 543.992 627.196 545.711 621.395 549.148C615.702 552.479 611.082 558.387 607.538 566.873C603.993 575.359 602.22 586.263 602.22 599.583C602.22 621.067 606.463 639.598 614.95 655.174C623.543 670.75 634.823 678.538 648.788 678.538C659.207 678.538 667.801 674.241 674.569 665.647C681.336 657.054 684.72 642.283 684.72 621.336C684.72 595.125 679.08 574.5 667.801 559.461C660.174 549.148 650.453 543.992 638.636 543.992ZM833.362 607.479C860.325 613.064 873.806 625.687 873.806 645.345C873.806 658.772 868.167 668.816 856.887 675.477C845.715 682.137 830.086 685.467 809.998 685.467H737.166V679.505C746.726 679.505 752.742 677.732 755.212 674.188C757.791 670.535 759.08 662.747 759.08 650.823V572.513C759.08 560.911 758.489 554.09 757.307 552.049C756.233 550.008 754.461 548.182 751.99 546.57C749.627 544.852 744.685 543.992 737.166 543.992V537.869H805.164C818.269 537.869 828.85 538.89 836.907 540.931C845.071 542.972 851.731 547 856.887 553.016C862.151 559.031 864.783 566.336 864.783 574.93C864.783 591.688 854.309 602.537 833.362 607.479ZM785.828 603.772C790.554 603.88 793.401 603.934 794.368 603.934C809.085 603.934 819.719 601.141 826.272 595.555C832.825 589.861 836.101 582.986 836.101 574.93C836.101 565.584 832.771 558.816 826.111 554.627C819.451 550.438 808.816 548.343 794.207 548.343H785.828V603.772ZM785.828 672.415C791.199 674.134 797.59 674.993 805.003 674.993C817.786 674.993 827.293 672.2 833.523 666.614C839.754 661.028 842.869 653.831 842.869 645.022C842.869 635.14 838.84 627.566 830.784 622.303C822.727 617.039 811.555 614.407 797.268 614.407C793.723 614.407 789.91 614.515 785.828 614.729V672.415ZM978.459 664.197C963.312 675.906 953.805 682.674 949.938 684.5C944.138 687.186 937.961 688.528 931.408 688.528C921.203 688.528 912.77 685.037 906.11 678.055C899.557 671.072 896.281 661.888 896.281 650.501C896.281 643.304 897.892 637.073 901.115 631.81C905.519 624.505 913.146 617.63 923.996 611.185C934.953 604.739 953.107 596.897 978.459 587.659V581.858C978.459 567.142 976.096 557.044 971.369 551.565C966.75 546.087 959.982 543.348 951.066 543.348C944.299 543.348 938.928 545.174 934.953 548.826C930.871 552.479 928.83 556.668 928.83 561.395L929.152 570.74C929.152 575.682 927.863 579.495 925.285 582.181C922.814 584.866 919.538 586.209 915.456 586.209C911.481 586.209 908.205 584.812 905.627 582.02C903.156 579.227 901.921 575.413 901.921 570.579C901.921 561.341 906.647 552.854 916.1 545.12C925.554 537.386 938.82 533.519 955.9 533.519C969.006 533.519 979.748 535.721 988.127 540.125C994.465 543.455 999.138 548.665 1002.15 555.755C1004.08 560.374 1005.05 569.827 1005.05 584.114V634.227C1005.05 648.299 1005.31 656.946 1005.85 660.169C1006.39 663.284 1007.25 665.379 1008.43 666.453C1009.72 667.527 1011.17 668.064 1012.78 668.064C1014.5 668.064 1016 667.688 1017.29 666.937C1019.55 665.54 1023.9 661.619 1030.34 655.174V664.197C1018.31 680.311 1006.82 688.367 995.861 688.367C990.597 688.367 986.408 686.541 983.293 682.889C980.178 679.236 978.566 673.006 978.459 664.197ZM978.459 653.724V597.488C962.238 603.934 951.764 608.499 947.038 611.185C938.552 615.911 932.482 620.853 928.83 626.009C925.178 631.165 923.351 636.805 923.351 642.928C923.351 650.662 925.661 657.107 930.28 662.264C934.899 667.312 940.217 669.837 946.232 669.837C954.396 669.837 965.138 664.466 978.459 653.724ZM1090.68 603.772H1152.08V572.513C1152.08 562.308 1151.54 555.701 1150.46 552.693C1149.39 549.686 1147.3 547.483 1144.18 546.087C1141.07 544.69 1135.26 543.992 1126.78 543.992V537.869H1205.09V543.992C1197.03 543.992 1191.34 544.529 1188.01 545.604C1184.79 546.57 1182.42 548.558 1180.92 551.565C1179.52 554.466 1178.82 561.448 1178.82 572.513V603.772H1194.62C1218.89 603.772 1236.35 607.317 1246.98 614.407C1257.62 621.497 1262.94 631.058 1262.94 643.089C1262.94 654.905 1257.78 664.949 1247.47 673.221C1237.26 681.385 1223.35 685.467 1205.73 685.467H1126.78V679.505C1134.41 679.397 1139.67 678.914 1142.57 678.055C1145.58 677.088 1147.89 674.939 1149.5 671.609C1151.22 668.279 1152.08 661.351 1152.08 650.823V614.246H1090.68V650.823C1090.68 662.317 1091.28 669.139 1092.46 671.287C1093.75 673.436 1095.57 675.369 1097.94 677.088C1100.41 678.699 1106.42 679.505 1115.98 679.505V685.467H1041.7V679.505C1051.26 679.505 1057.38 677.786 1060.07 674.349C1062.75 670.804 1064.1 662.962 1064.1 650.823V572.513C1064.1 561.019 1063.51 554.251 1062.33 552.21C1061.14 550.062 1059.32 548.182 1056.85 546.57C1054.38 544.852 1049.33 543.992 1041.7 543.992V537.869H1115.98V543.992C1106.42 543.992 1100.46 544.744 1098.1 546.248C1095.73 547.752 1093.91 549.632 1092.62 551.888C1091.33 554.036 1090.68 560.911 1090.68 572.513V603.772ZM1178.82 672.576C1185.16 674.188 1191.34 674.993 1197.35 674.993C1207.67 674.993 1215.99 672.093 1222.33 666.292C1228.78 660.384 1232 653.401 1232 645.345C1232 637.288 1229.04 630.091 1223.14 623.753C1217.33 617.415 1206.7 614.246 1191.23 614.246H1178.82V672.576ZM1311.68 593.46C1311.57 615.374 1316.89 632.562 1327.63 645.022C1338.37 657.483 1350.99 663.714 1365.49 663.714C1375.16 663.714 1383.54 661.082 1390.63 655.818C1397.83 650.447 1403.84 641.316 1408.68 628.426L1413.67 631.648C1411.42 646.365 1404.86 659.793 1394.01 671.932C1383.16 683.963 1369.58 689.979 1353.25 689.979C1335.52 689.979 1320.32 683.104 1307.65 669.354C1295.08 655.496 1288.79 636.912 1288.79 613.602C1288.79 588.357 1295.24 568.699 1308.13 554.627C1321.13 540.447 1337.4 533.357 1356.95 533.357C1373.5 533.357 1387.09 538.836 1397.72 549.793C1408.35 560.643 1413.67 575.198 1413.67 593.46H1311.68ZM1311.68 584.114H1380C1379.46 574.661 1378.33 568.001 1376.61 564.134C1373.93 558.118 1369.9 553.392 1364.53 549.954C1359.26 546.517 1353.73 544.798 1347.93 544.798C1339.01 544.798 1331.01 548.289 1323.92 555.271C1316.94 562.146 1312.86 571.761 1311.68 584.114Z" fill="#675032"/>
<path d="M527.258 422.148C533.227 423.54 537.417 425.225 539.829 427.204C543.293 430.018 545.024 433.667 545.024 438.151C545.024 442.883 543.123 446.795 539.319 449.887C534.649 453.629 527.861 455.5 518.955 455.5H486.995V453.784C489.902 453.784 491.865 453.521 492.886 452.995C493.937 452.438 494.664 451.727 495.066 450.861C495.499 449.995 495.715 447.862 495.715 444.46V403.64C495.715 400.238 495.499 398.104 495.066 397.238C494.664 396.341 493.937 395.63 492.886 395.104C491.834 394.579 489.871 394.316 486.995 394.316V392.6H517.146C524.351 392.6 529.454 393.249 532.454 394.548C535.453 395.816 537.819 397.733 539.551 400.3C541.283 402.836 542.148 405.542 542.148 408.417C542.148 411.448 541.051 414.154 538.855 416.535C536.659 418.885 532.794 420.756 527.258 422.148ZM510.374 420.896C514.765 420.896 517.996 420.401 520.068 419.411C522.171 418.422 523.779 417.03 524.893 415.236C526.006 413.443 526.562 411.154 526.562 408.371C526.562 405.588 526.006 403.315 524.893 401.552C523.81 399.759 522.249 398.398 520.208 397.47C518.167 396.542 514.889 396.094 510.374 396.125V420.896ZM510.374 424.514V444.692L510.327 447.011C510.327 448.681 510.745 449.949 511.58 450.815C512.445 451.65 513.713 452.067 515.383 452.067C517.857 452.067 520.13 451.526 522.202 450.444C524.305 449.331 525.913 447.738 527.026 445.666C528.14 443.563 528.696 441.228 528.696 438.662C528.696 435.724 528.016 433.095 526.655 430.776C525.295 428.426 523.424 426.787 521.042 425.859C518.661 424.931 515.105 424.483 510.374 424.514ZM643.921 402.99C643.89 399.589 643.472 397.3 642.668 396.125C641.895 394.919 639.932 394.316 636.777 394.316H634.69V392.6H668.413V394.316H666.233C663.326 394.316 661.393 394.873 660.435 395.986C659.507 397.099 659.043 399.542 659.043 403.315V444.692C659.043 448.557 659.522 451.047 660.481 452.16C661.44 453.243 663.357 453.784 666.233 453.784H668.413V455.5H634.69V453.784H636.777C639.715 453.784 641.632 453.212 642.529 452.067C643.457 450.892 643.921 448.434 643.921 444.692V410.551L621.748 445.341C621.748 448.341 622.119 450.506 622.861 451.835C623.604 453.134 625.614 453.784 628.892 453.784H631.072V455.5H597.349V453.784H599.436C602.374 453.784 604.307 453.212 605.234 452.067C606.162 450.892 606.626 448.434 606.626 444.692V403.315C606.626 399.542 606.255 397.099 605.513 395.986C604.771 394.873 602.745 394.316 599.436 394.316H597.349V392.6H631.072V394.316H628.892C626.047 394.316 624.145 394.934 623.186 396.171C622.227 397.377 621.748 399.759 621.748 403.315V437.78L643.921 402.99ZM785.4 394.316C781.999 394.316 779.803 394.857 778.813 395.939C777.824 397.022 777.329 399.032 777.329 401.97V445.712C777.329 449.052 777.824 451.217 778.813 452.207C779.803 453.196 782.076 453.722 785.632 453.784V455.5H753.904V453.784C756.44 453.784 758.218 453.583 759.238 453.181C760.29 452.748 761.047 452.052 761.511 451.093C761.975 450.135 762.207 448.434 762.207 445.991V396.682H747.085V415.468C747.085 423.323 746.884 429.307 746.482 433.42C746.111 437.533 745.044 441.445 743.281 445.156C741.549 448.836 739.307 451.604 736.555 453.459C733.803 455.314 730.757 456.242 727.417 456.242C724.386 456.242 722.036 455.454 720.366 453.876C718.696 452.268 717.861 450.289 717.861 447.939C717.861 445.991 718.372 444.398 719.392 443.161C720.413 441.893 721.882 441.259 723.799 441.259C727.355 441.259 729.319 443.47 729.69 447.893C729.845 449.872 730.618 450.861 732.009 450.861C733.958 450.861 736.029 449.562 738.225 446.965C740.421 444.336 741.874 440.734 742.585 436.157C743.297 431.58 743.652 424.947 743.652 416.257V404.382C743.652 401.011 743.436 398.769 743.003 397.656C742.601 396.512 741.797 395.692 740.591 395.197C739.416 394.672 737.297 394.378 734.236 394.316V392.6H785.4V394.316ZM875.112 437.595H852.893L850.249 443.718C849.383 445.759 848.95 447.444 848.95 448.774C848.95 450.537 849.661 451.835 851.084 452.67C851.919 453.165 853.975 453.536 857.253 453.784V455.5H836.333V453.784C838.59 453.444 840.446 452.516 841.899 451C843.353 449.454 845.146 446.285 847.28 441.491L869.778 391.301H870.659L893.342 442.883C895.507 447.769 897.285 450.846 898.677 452.114C899.728 453.072 901.213 453.629 903.13 453.784V455.5H872.7V453.784H873.953C876.396 453.784 878.112 453.444 879.102 452.763C879.782 452.268 880.122 451.557 880.122 450.629C880.122 450.073 880.029 449.501 879.844 448.913C879.782 448.635 879.318 447.475 878.452 445.434L875.112 437.595ZM873.535 434.162L864.165 412.5L854.517 434.162H873.535Z" fill="white"/>
<path d="M186.062 524.12V637.03C186.062 659.052 187.363 672.965 189.966 678.771C192.769 684.376 197.573 688.881 204.38 692.284C211.387 695.688 224.099 697.389 242.517 697.389V708.5H35.6152V697.389C54.4336 697.389 67.146 695.688 73.7524 692.284C80.5591 688.681 85.2637 684.076 87.8662 678.471C90.6689 672.865 92.0703 659.052 92.0703 637.03V372.772C92.0703 350.751 90.6689 336.938 87.8662 331.332C85.2637 325.526 80.5591 320.922 73.7524 317.519C66.9458 314.115 54.2334 312.414 35.6152 312.414V301.303H213.088C271.545 301.303 313.486 311.713 338.911 332.533C364.336 353.354 377.048 379.379 377.048 410.609C377.048 437.035 368.84 459.657 352.424 478.476C336.008 497.294 313.386 510.106 284.558 516.913C265.139 521.718 232.307 524.12 186.062 524.12ZM186.062 324.726V500.697C192.668 501.098 197.673 501.298 201.077 501.298C225.5 501.298 244.319 494.091 257.532 479.677C270.745 465.062 277.351 442.541 277.351 412.111C277.351 381.881 270.745 359.76 257.532 345.746C244.319 331.732 224.6 324.726 198.374 324.726H186.062Z" fill="#675032"/>
<path d="M36 707.5C195 1064 1155.5 680.465 1404 797.462C1135 491.965 314 961.501 36 707.5Z" fill="#675032"/>
</svg>
